<?xml version="1.0" standalone="no"?><!DOCTYPE svg PUBLIC "-//W3C//DTD SVG 1.1//EN" "http://www.w3.org/Graphics/SVG/1.1/DTD/svg11.dtd"><svg height="302" node-id="1" sillyvg="true" template-height="302" template-width="442" version="1.1" viewBox="0 0 442 302" width="442" xmlns="http://www.w3.org/2000/svg" xmlns:xlink="http://www.w3.org/1999/xlink"><defs node-id="55"><linearGradient gradientUnits="objectBoundingBox" id="linearGradient-1" node-id="5" spreadMethod="pad" x1="1" x2="-0.00000000000000012229651" y1="0.5" y2="0.5"><stop offset="0.0000002075353" stop-color="#2e3192"></stop><stop offset="1" stop-color="#0071bc"></stop></linearGradient><linearGradient gradientUnits="objectBoundingBox" id="linearGradient-2" node-id="8" spreadMethod="pad" x1="0.0065076016" x2="0.99363786" y1="0.48104617" y2="0.5205558"><stop offset="0.0000002075353" stop-color="#a580bf"></stop><stop offset="0.9981" stop-color="#006ab2"></stop></linearGradient></defs><g node-id="68"><path d="M 340.50 116.70 L 340.20 124.70 L 339.40 132.60 L 338.10 140.20 L 336.30 147.60 L 334.10 154.90 L 331.40 162.00 L 328.20 168.80 L 324.60 175.30 L 320.60 181.70 L 316.30 187.70 L 311.60 193.40 L 306.50 198.90 L 301.00 204.00 L 295.30 208.70 L 289.30 213.00 L 282.90 217.00 L 276.40 220.60 L 269.60 223.80 L 262.50 226.50 L 255.20 228.70 L 247.80 230.50 L 240.20 231.80 L 232.30 232.60 L 224.30 232.90 L 216.30 232.60 L 208.40 231.80 L 200.80 230.50 L 193.40 228.70 L 186.10 226.50 L 179.00 223.80 L 172.20 220.60 L 165.70 217.00 L 159.30 213.00 L 153.30 208.70 L 147.60 204.00 L 142.10 198.90 L 137.00 193.40 L 132.30 187.70 L 128.00 181.70 L 124.00 175.30 L 120.40 168.80 L 117.20 162.00 L 114.50 154.90 L 112.30 147.60 L 110.50 140.20 L 109.20 132.60 L 108.40 124.70 L 108.10 116.70 L 108.40 108.70 L 109.20 100.80 L 110.50 93.20 L 112.30 85.80 L 114.50 78.50 L 117.20 71.40 L 120.40 64.60 L 124.00 58.10 L 128.00 51.70 L 132.30 45.70 L 137.00 40.00 L 142.10 34.50 L 147.60 29.40 L 153.30 24.70 L 159.30 20.40 L 165.70 16.40 L 172.20 12.80 L 179.00 9.60 L 186.10 6.90 L 193.40 4.70 L 200.80 2.90 L 208.40 1.60 L 216.30 0.80 L 224.30 0.50 L 232.30 0.80 L 240.20 1.60 L 247.80 2.90 L 255.20 4.70 L 262.50 6.90 L 269.60 9.60 L 276.40 12.80 L 282.90 16.40 L 289.30 20.40 L 295.30 24.70 L 301.00 29.40 L 306.50 34.50 L 311.60 40.00 L 316.30 45.70 L 320.60 51.70 L 324.60 58.10 L 328.20 64.60 L 331.40 71.40 L 334.10 78.50 L 336.30 85.80 L 338.10 93.20 L 339.40 100.80 L 340.20 108.70 L 340.50 116.70 Z" fill="url(#linearGradient-1)" fill-rule="nonzero" group-id="1" id="椭圆形" node-id="13" stroke="none" target-height="232.4" target-width="232.4" target-x="108.1" target-y="0.5"></path><path d="M 273.90 11.90 L 264.60 13.10 L 261.70 14.00 L 258.90 15.30 L 256.30 17.00 L 254.20 19.10 L 252.70 21.20 L 248.40 30.50 L 247.00 32.60 L 245.10 34.60 L 241.60 36.80 L 239.20 37.80 L 235.20 38.80 L 230.90 39.20 L 217.80 39.40 L 213.70 39.80 L 211.10 40.40 L 208.70 41.40 L 206.40 42.70 L 204.50 44.50 L 202.70 46.80 L 201.00 49.90 L 199.90 53.80 L 198.60 61.90 L 197.50 65.50 L 196.10 68.80 L 192.60 74.50 L 189.60 77.90 L 186.10 80.90 L 181.90 83.60 L 169.00 89.50 L 162.20 93.20 L 157.40 97.40 L 155.50 99.90 L 154.20 102.20 L 153.40 104.50 L 152.20 112.60 L 152.20 114.20 L 153.00 116.20 L 154.20 117.30 L 158.20 119.60 L 158.10 120.90 L 157.20 122.20 L 151.40 127.40 L 145.70 131.70 L 142.70 133.50 L 139.40 134.90 L 135.80 136.00 L 128.20 137.00 L 118.70 136.90 L 113.70 136.30 L 112.80 136.90 L 112.90 137.40 L 113.30 137.70 L 123.40 138.50 L 129.00 138.30 L 134.60 137.60 L 141.80 135.70 L 145.10 134.30 L 148.20 132.60 L 150.80 130.40 L 153.10 127.90 L 154.40 125.70 L 155.30 123.40 L 156.00 117.30 L 156.10 105.70 L 157.20 100.90 L 158.40 98.50 L 160.00 96.40 L 162.00 94.50 L 164.40 92.80 L 168.20 90.70 L 181.10 85.30 L 185.10 83.30 L 188.50 81.00 L 193.30 76.20 L 197.00 70.60 L 198.40 67.50 L 199.50 64.30 L 201.50 53.80 L 202.40 50.60 L 204.50 46.90 L 206.20 45.10 L 208.20 43.60 L 210.90 42.20 L 214.50 40.80 L 217.60 40.20 L 220.80 39.90 L 233.80 40.10 L 237.50 39.60 L 243.40 37.80 L 245.50 36.60 L 248.70 33.70 L 255.90 23.80 L 260.40 18.50 L 262.90 16.60 L 265.90 15.00 L 270.70 13.70 L 273.90 13.40 L 274.40 13.10 L 274.60 12.60 L 274.40 12.10 L 273.90 11.90 Z" fill="#ffffff" fill-rule="nonzero" group-id="1" id="路径" node-id="14" stroke="none" target-height="126.6" target-width="161.8" target-x="112.8" target-y="11.9"></path><path d="M 268.20 8.80 L 262.00 8.30 L 258.90 8.30 L 256.00 8.80 L 252.30 10.30 L 249.20 12.80 L 247.00 16.60 L 246.60 20.20 L 243.80 23.50 L 240.90 26.00 L 238.00 28.00 L 235.00 29.30 L 231.80 30.20 L 228.60 30.60 L 225.10 30.40 L 219.90 30.70 L 210.20 32.00 L 205.80 33.30 L 203.00 34.50 L 200.50 36.10 L 198.10 38.00 L 196.10 40.20 L 194.20 43.00 L 192.50 46.50 L 190.90 50.70 L 186.60 64.70 L 185.20 67.70 L 183.30 70.50 L 180.70 73.40 L 177.50 76.10 L 173.10 78.90 L 161.80 85.00 L 154.60 89.70 L 151.40 92.60 L 148.70 95.50 L 146.50 98.70 L 144.20 103.50 L 143.60 106.00 L 143.50 108.20 L 145.40 116.60 L 145.50 118.50 L 144.30 121.20 L 142.90 122.70 L 140.40 124.60 L 137.20 126.50 L 133.60 128.10 L 129.60 129.30 L 125.60 130.20 L 121.70 130.50 L 119.10 130.50 L 114.70 129.50 L 112.80 128.50 L 111.30 127.10 L 109.70 125.10 L 109.20 125.20 L 108.80 125.50 L 108.80 126.10 L 109.90 127.60 L 111.40 128.90 L 113.40 130.00 L 116.90 131.30 L 121.00 132.20 L 125.40 132.60 L 129.80 132.70 L 134.20 132.30 L 138.00 131.70 L 140.40 130.90 L 143.70 129.20 L 146.20 126.60 L 147.10 123.70 L 147.00 121.90 L 145.50 115.70 L 145.20 113.20 L 145.30 109.00 L 145.80 105.40 L 146.70 102.20 L 148.10 99.20 L 149.80 96.60 L 151.90 94.20 L 155.40 91.00 L 163.90 85.60 L 177.50 78.30 L 180.60 76.30 L 183.10 74.10 L 185.20 71.80 L 188.50 66.20 L 189.80 62.80 L 192.90 49.60 L 194.00 46.40 L 195.50 43.40 L 197.40 40.70 L 199.30 38.50 L 201.40 36.80 L 206.20 34.20 L 212.70 32.50 L 216.80 32.00 L 236.30 31.80 L 239.10 31.40 L 241.70 30.50 L 244.70 28.50 L 246.00 27.10 L 247.80 23.60 L 248.10 20.80 L 248.80 18.30 L 250.00 16.20 L 251.70 14.20 L 253.90 12.40 L 256.80 10.80 L 260.40 9.50 L 268.40 10.10 L 268.80 10.00 L 268.90 9.60 L 268.20 8.80 Z" fill="#ffffff" fill-rule="nonzero" group-id="1" id="路径" node-id="15" stroke="none" target-height="124.399994" target-width="160.09999" target-x="108.8" target-y="8.3"></path><path d="M 129.90 182.40 L 134.20 178.20 L 139.40 175.00 L 145.00 173.10 L 148.00 172.80 L 151.00 172.80 L 154.10 173.30 L 155.90 173.90 L 162.70 177.50 L 167.10 178.70 L 169.50 178.90 L 171.90 178.70 L 174.60 177.90 L 177.20 176.50 L 179.30 174.90 L 186.20 166.80 L 193.50 160.20 L 196.20 158.40 L 199.10 157.00 L 201.60 156.30 L 203.80 156.20 L 205.90 156.50 L 210.20 158.40 L 220.20 165.90 L 224.40 168.80 L 227.10 170.20 L 229.60 170.90 L 231.90 171.10 L 234.10 170.80 L 236.30 170.10 L 238.30 168.90 L 240.30 167.10 L 242.30 164.80 L 243.90 162.20 L 246.00 156.30 L 248.80 143.80 L 251.20 135.70 L 253.90 130.60 L 255.60 128.90 L 256.80 128.10 L 258.20 127.80 L 259.70 127.90 L 261.20 128.40 L 262.90 129.60 L 265.00 131.60 L 266.00 133.20 L 266.70 135.30 L 268.20 142.20 L 270.00 146.00 L 271.30 147.70 L 272.80 149.00 L 274.60 149.90 L 275.80 150.10 L 279.00 149.60 L 280.70 148.70 L 282.00 147.40 L 283.90 144.20 L 285.00 140.60 L 285.10 139.30 L 284.30 133.50 L 284.40 130.80 L 304.00 124.40 L 305.50 127.70 L 306.60 131.20 L 307.20 134.80 L 308.40 137.80 L 309.70 140.00 L 311.90 142.00 L 313.30 142.60 L 315.70 143.10 L 319.20 143.10 L 323.90 142.40 L 328.60 140.60 L 330.60 139.30 L 332.30 137.70 L 333.60 135.80 L 334.40 133.90 L 336.60 125.60 L 337.60 123.60 L 339.10 121.70 L 339.10 121.30 L 338.70 121.30 L 337.30 123.20 L 332.60 134.10 L 331.30 136.60 L 329.70 138.90 L 327.80 140.60 L 326.30 141.40 L 324.50 141.80 L 322.40 141.90 L 307.60 134.70 L 307.00 131.30 L 305.10 125.70 L 301.40 120.20 L 299.10 117.90 L 295.60 115.60 L 293.80 115.00 L 291.90 114.80 L 289.90 115.10 L 287.80 116.10 L 286.30 117.30 L 284.50 120.50 L 283.30 126.00 L 283.20 128.50 L 283.90 134.00 L 283.00 135.50 L 281.50 136.30 L 270.30 140.10 L 268.30 140.30 L 266.60 134.40 L 265.40 131.90 L 262.80 128.30 L 260.10 126.60 L 258.60 126.40 L 256.80 126.60 L 254.80 127.50 L 253.60 128.40 L 251.80 131.10 L 250.10 135.60 L 249.00 139.40 L 246.30 152.00 L 243.80 160.20 L 242.70 162.70 L 239.50 167.20 L 237.20 169.30 L 235.00 170.50 L 233.10 171.00 L 231.00 170.90 L 228.90 170.50 L 226.90 169.50 L 223.90 167.60 L 212.80 158.00 L 210.40 156.60 L 207.60 155.70 L 204.70 155.10 L 201.70 155.00 L 198.80 155.50 L 196.60 156.20 L 193.00 158.40 L 188.30 162.90 L 181.30 172.30 L 175.00 176.90 L 169.00 180.20 L 167.20 180.60 L 165.70 180.60 L 164.70 180.10 L 161.10 175.90 L 159.80 174.90 L 157.80 174.10 L 154.00 173.20 L 147.10 172.70 L 143.80 173.00 L 140.70 173.70 L 137.70 175.00 L 134.90 176.70 L 132.10 179.00 L 129.30 182.00 L 129.50 182.40 L 129.90 182.40 Z" fill="#ffffff" fill-rule="nonzero" group-id="1" id="路径" node-id="16" stroke="none" target-height="67.59999" target-width="209.8" target-x="129.3" target-y="114.8"></path><path d="M 132.00 187.40 L 150.40 181.60 L 164.80 185.20 L 168.30 185.60 L 175.50 185.50 L 181.40 184.30 L 186.00 182.40 L 190.90 178.70 L 191.50 178.10 L 190.70 178.00 L 191.80 176.60 L 194.30 171.70 L 211.40 167.20 L 213.70 168.00 L 222.90 174.20 L 225.30 175.30 L 228.70 176.10 L 232.00 176.20 L 235.20 175.80 L 238.60 174.90 L 241.10 173.80 L 244.60 171.20 L 246.60 168.80 L 250.00 163.40 L 253.30 158.80 L 257.10 155.40 L 259.40 154.20 L 262.70 153.50 L 264.50 153.70 L 264.00 153.70 L 264.20 154.10 L 268.90 157.70 L 272.90 159.60 L 275.00 160.20 L 277.30 160.30 L 281.70 159.50 L 283.20 158.70 L 285.30 157.00 L 290.50 150.00 L 291.20 147.80 L 291.30 145.40 L 304.10 141.60 L 307.50 146.40 L 311.00 149.80 L 313.00 151.20 L 315.20 152.20 L 319.70 153.20 L 321.30 153.10 L 323.60 152.50 L 325.50 151.40 L 332.60 144.70 L 334.90 143.40 L 337.80 142.40 L 338.00 142.10 L 337.60 141.80 L 331.80 144.40 L 330.30 145.80 L 328.60 146.70 L 326.40 147.10 L 323.80 146.90 L 320.50 145.90 L 317.30 147.40 L 314.70 148.20 L 312.40 148.30 L 310.50 148.00 L 308.80 147.20 L 307.30 145.90 L 305.90 144.00 L 303.10 138.60 L 299.70 135.60 L 298.50 135.20 L 297.20 135.20 L 295.40 135.70 L 294.10 136.50 L 293.20 137.60 L 290.00 146.10 L 288.10 152.30 L 287.40 153.50 L 286.40 154.30 L 285.00 154.80 L 282.70 154.90 L 275.80 154.40 L 272.80 154.90 L 270.20 154.90 L 267.90 154.40 L 265.70 153.60 L 263.80 152.30 L 262.00 150.60 L 257.10 150.40 L 256.00 150.90 L 255.10 151.80 L 253.60 153.70 L 252.20 156.20 L 249.40 164.30 L 248.10 166.90 L 246.20 169.30 L 243.60 171.60 L 241.10 173.30 L 238.70 174.30 L 233.80 175.10 L 231.40 174.90 L 227.70 174.10 L 224.10 172.70 L 209.60 165.80 L 206.90 164.90 L 204.50 164.60 L 202.20 164.70 L 200.00 165.20 L 197.80 166.40 L 194.90 169.30 L 192.90 173.70 L 189.60 177.50 L 186.70 180.00 L 183.70 182.00 L 180.30 183.60 L 176.80 184.60 L 173.00 185.10 L 168.70 185.00 L 164.50 184.40 L 152.20 181.40 L 148.00 180.70 L 144.50 180.50 L 141.40 180.70 L 138.70 181.40 L 136.20 182.60 L 133.90 184.50 L 131.60 187.10 L 131.60 187.50 L 132.00 187.40 Z" fill="#ffffff" fill-rule="nonzero" group-id="1" id="路径" node-id="17" stroke="none" target-height="52.300003" target-width="206.4" target-x="131.6" target-y="135.2"></path><path d="M 175.70 11.60 L 176.40 22.50 L 176.00 28.00 L 175.20 33.30 L 174.20 36.70 L 171.20 43.10 L 169.10 45.90 L 166.60 48.50 L 163.50 50.90 L 156.00 55.00 L 147.60 57.90 L 143.30 58.80 L 138.90 59.20 L 134.60 59.00 L 130.40 58.30 L 126.30 57.00 L 125.70 57.00 L 125.50 57.40 L 125.90 58.40 L 132.60 60.30 L 136.20 60.60 L 143.40 60.30 L 147.00 59.70 L 152.40 58.20 L 157.50 56.10 L 162.20 53.50 L 166.50 50.50 L 169.20 48.00 L 171.50 45.30 L 173.30 42.40 L 175.90 36.00 L 176.80 32.70 L 177.60 27.50 L 177.80 22.10 L 177.60 16.80 L 177.10 11.60 L 176.80 11.10 L 176.30 10.90 L 175.90 11.10 L 175.70 11.60 Z" fill="#ffffff" fill-rule="nonzero" group-id="1" id="路径" node-id="18" stroke="none" target-height="49.699997" target-width="52.300003" target-x="125.5" target-y="10.9"></path><path d="M 170.10 14.20 L 169.90 18.10 L 169.20 21.80 L 167.80 25.20 L 166.50 27.60 L 162.80 31.80 L 160.40 33.60 L 154.50 36.80 L 153.20 37.80 L 152.00 39.20 L 148.70 46.40 L 147.20 48.20 L 145.50 49.50 L 141.20 51.20 L 130.40 52.40 L 126.40 53.50 L 126.00 53.90 L 126.50 54.80 L 127.10 54.80 L 130.10 53.90 L 139.50 53.00 L 142.60 52.50 L 145.60 51.30 L 147.90 49.80 L 151.00 46.40 L 154.80 40.10 L 156.60 38.00 L 165.40 31.20 L 167.30 29.00 L 168.70 26.70 L 170.70 22.00 L 171.40 18.20 L 171.60 14.20 L 171.40 13.60 L 170.90 13.40 L 170.30 13.60 L 170.10 14.20 Z" fill="#ffffff" fill-rule="nonzero" group-id="1" id="路径" node-id="19" stroke="none" target-height="41.4" target-width="45.600006" target-x="126" target-y="13.4"></path><path d="M 208.90 231.20 L 210.80 228.30 L 212.80 225.80 L 217.80 221.70 L 223.40 218.50 L 228.00 216.70 L 234.10 214.80 L 244.30 214.40 L 257.90 215.10 L 266.70 216.20 L 273.30 218.20 L 275.70 219.50 L 276.10 219.30 L 276.30 218.80 L 276.10 218.30 L 274.00 216.70 L 270.50 214.90 L 267.90 214.30 L 256.60 213.50 L 252.80 212.60 L 243.70 208.90 L 240.40 208.70 L 238.10 209.00 L 231.30 213.40 L 227.30 215.30 L 222.90 216.80 L 219.00 217.20 L 217.50 217.60 L 215.30 219.00 L 213.40 221.00 L 211.70 223.30 L 207.70 230.50 L 207.60 231.10 L 208.00 231.50 L 208.50 231.60 L 208.90 231.20 Z" fill="#ffffff" fill-rule="nonzero" group-id="1" id="路径" node-id="20" stroke="none" target-height="22.90001" target-width="68.69998" target-x="207.6" target-y="208.7"></path><path d="M 197.20 229.50 L 201.10 226.40 L 209.90 216.40 L 213.00 214.30 L 217.60 212.50 L 226.80 209.50 L 234.90 207.60 L 240.30 206.90 L 245.60 206.60 L 250.80 206.80 L 255.90 207.50 L 261.00 208.50 L 266.00 210.00 L 271.00 211.90 L 281.50 217.30 L 281.90 216.40 L 281.60 215.90 L 272.50 210.10 L 269.70 208.60 L 266.70 207.50 L 259.50 205.70 L 248.30 202.10 L 245.40 201.70 L 242.50 201.80 L 221.50 207.60 L 213.20 210.90 L 210.70 212.50 L 208.50 214.50 L 201.00 224.10 L 198.90 226.30 L 196.50 228.20 L 196.20 228.70 L 196.20 229.30 L 196.60 229.60 L 197.20 229.50 Z" fill="#ffffff" fill-rule="nonzero" group-id="1" id="路径" node-id="21" stroke="none" target-height="27.90001" target-width="85.7" target-x="196.2" target-y="201.7"></path><path d="M 187.00 226.20 L 192.60 220.90 L 202.60 209.70 L 206.60 206.50 L 211.70 204.20 L 224.80 201.50 L 228.30 200.30 L 235.20 197.30 L 238.30 196.70 L 246.90 196.80 L 250.90 197.40 L 259.20 201.60 L 262.90 203.00 L 272.90 205.70 L 275.90 206.90 L 279.00 208.60 L 282.90 212.00 L 285.00 214.50 L 286.10 214.70 L 286.40 214.30 L 286.30 213.80 L 283.60 210.60 L 280.90 208.00 L 278.00 206.00 L 274.70 204.30 L 263.70 200.70 L 249.60 193.70 L 247.10 192.90 L 242.70 192.50 L 240.10 192.90 L 237.30 193.80 L 226.80 199.30 L 224.00 200.30 L 211.60 202.10 L 209.00 203.10 L 205.60 205.00 L 202.50 207.50 L 199.60 210.30 L 191.50 219.60 L 185.90 225.20 L 185.70 225.70 L 186.00 226.20 L 186.40 226.40 L 187.00 226.20 Z" fill="#ffffff" fill-rule="nonzero" group-id="1" id="路径" node-id="22" stroke="none" target-height="33.899994" target-width="100.7" target-x="185.7" target-y="192.5"></path><path d="M 308.50 37.00 L 306.10 38.40 L 302.80 41.50 L 301.20 44.50 L 300.90 46.20 L 301.00 48.00 L 301.60 50.00 L 302.50 51.40 L 305.60 54.50 L 306.90 56.80 L 307.50 58.80 L 307.70 60.90 L 307.60 66.80 L 308.00 68.80 L 308.90 70.80 L 310.00 72.20 L 315.90 75.90 L 323.40 82.50 L 325.60 83.70 L 327.70 84.50 L 329.90 84.70 L 332.30 84.40 L 335.00 83.50 L 335.40 83.10 L 335.30 82.60 L 334.30 82.20 L 330.10 83.50 L 328.60 83.50 L 326.00 82.60 L 323.50 80.10 L 319.40 74.40 L 317.20 73.60 L 311.10 68.20 L 309.90 66.20 L 309.10 57.10 L 308.30 55.00 L 306.30 53.30 L 304.80 49.40 L 304.20 46.40 L 304.20 44.00 L 304.70 42.10 L 305.70 40.60 L 309.60 37.90 L 309.10 37.00 L 308.50 37.00 Z" fill="#ffffff" fill-rule="nonzero" group-id="1" id="路径" node-id="23" stroke="none" target-height="47.699997" target-width="34.5" target-x="300.9" target-y="37"></path><path d="M 304.80 33.70 L 299.70 36.00 L 295.60 39.50 L 294.00 41.70 L 292.80 44.00 L 291.90 46.70 L 291.30 51.40 L 291.60 53.70 L 293.20 57.30 L 295.90 59.30 L 300.70 66.40 L 300.50 68.00 L 301.20 70.50 L 302.70 73.80 L 306.00 78.60 L 316.90 89.40 L 320.00 93.20 L 322.80 94.20 L 327.50 94.00 L 332.40 92.80 L 336.80 91.60 L 337.20 91.30 L 337.00 90.30 L 336.40 90.20 L 328.90 91.90 L 327.00 91.80 L 325.20 91.40 L 323.00 90.20 L 317.40 85.90 L 315.90 83.10 L 307.10 77.10 L 305.50 75.40 L 304.10 73.20 L 303.10 70.70 L 301.40 61.90 L 300.20 59.30 L 292.60 51.00 L 293.10 47.70 L 294.00 44.80 L 295.30 42.20 L 297.00 40.00 L 299.20 38.10 L 301.80 36.40 L 305.60 34.70 L 305.40 33.80 L 304.80 33.70 Z" fill="#ffffff" fill-rule="nonzero" group-id="1" id="路径" node-id="24" stroke="none" target-height="60.499996" target-width="45.900024" target-x="291.3" target-y="33.7"></path><path d="M 299.10 28.20 L 296.60 29.50 L 294.40 31.10 L 292.50 33.00 L 289.40 37.40 L 288.10 40.00 L 286.70 44.00 L 285.80 48.00 L 285.40 51.80 L 285.40 55.00 L 286.00 58.20 L 287.10 61.60 L 289.70 63.80 L 293.00 69.30 L 293.30 70.20 L 293.40 74.70 L 294.50 80.90 L 295.50 83.50 L 296.70 84.80 L 299.70 86.20 L 305.40 90.40 L 312.80 96.70 L 315.60 98.30 L 318.50 99.40 L 324.70 100.50 L 338.40 100.30 L 338.90 100.10 L 338.90 99.00 L 338.40 98.80 L 328.30 99.30 L 321.30 99.00 L 318.70 98.30 L 315.80 96.90 L 313.40 95.20 L 311.60 93.20 L 308.90 88.00 L 302.40 83.70 L 299.20 80.10 L 296.50 75.20 L 293.20 64.80 L 291.10 62.90 L 289.50 60.80 L 288.20 58.40 L 287.30 55.60 L 286.70 52.40 L 286.70 49.30 L 287.30 45.90 L 288.40 42.50 L 289.90 39.20 L 291.80 36.10 L 294.10 33.50 L 295.80 31.90 L 299.80 29.20 L 299.70 28.30 L 299.10 28.20 Z" fill="#ffffff" fill-rule="nonzero" group-id="1" id="路径" node-id="25" stroke="none" target-height="72.3" target-width="53.5" target-x="285.4" target-y="28.2"></path><path d="M 225.90 101.20 L 226.80 100.60 L 226.80 99.60 L 226.50 99.20 L 225.90 99.00 L 225.00 99.60 L 225.00 100.60 L 225.90 101.20 Z" fill="#ffffff" fill-rule="nonzero" group-id="1" id="路径" node-id="26" stroke="none" target-height="2.199997" target-width="1.800003" target-x="225" target-y="99"></path><path d="M 233.00 110.40 L 233.90 109.90 L 233.90 108.90 L 233.60 108.60 L 233.00 108.40 L 232.10 108.90 L 232.10 109.90 L 233.00 110.40 Z" fill="#ffffff" fill-rule="nonzero" group-id="1" id="路径" node-id="27" stroke="none" target-height="2" target-width="1.7999878" target-x="232.1" target-y="108.4"></path><path d="M 212.40 111.30 L 213.20 111.10 L 213.70 109.90 L 213.20 108.70 L 212.40 108.50 L 211.60 108.70 L 211.10 109.90 L 211.60 111.10 L 212.40 111.30 Z" fill="#ffffff" fill-rule="nonzero" group-id="1" id="路径" node-id="28" stroke="none" target-height="2.800003" target-width="2.5999908" target-x="211.1" target-y="108.5"></path><path d="M 242.30 127.20 L 243.10 127.00 L 243.70 125.80 L 243.10 124.60 L 242.30 124.40 L 241.50 124.60 L 241.00 125.80 L 241.50 127.00 L 242.30 127.20 Z" fill="#ffffff" fill-rule="nonzero" group-id="1" id="路径" node-id="29" stroke="none" target-height="2.7999954" target-width="2.699997" target-x="241" target-y="124.4"></path><path d="M 244.20 52.80 L 245.00 52.60 L 245.50 51.40 L 245.00 50.20 L 244.20 50.00 L 243.40 50.30 L 242.90 51.40 L 243.40 52.60 L 244.20 52.80 Z" fill="#ffffff" fill-rule="nonzero" group-id="1" id="路径" node-id="30" stroke="none" target-height="2.7999992" target-width="2.600006" target-x="242.9" target-y="50"></path><path d="M 129.70 81.80 L 130.50 81.60 L 131.00 80.40 L 130.50 79.20 L 129.70 79.00 L 128.90 79.30 L 128.40 80.40 L 128.90 81.60 L 129.70 81.80 Z" fill="#ffffff" fill-rule="nonzero" group-id="1" id="路径" node-id="31" stroke="none" target-height="2.800003" target-width="2.600006" target-x="128.4" target-y="79"></path><path d="M 163.40 136.80 L 164.30 136.30 L 164.30 135.30 L 164.00 135.00 L 163.40 134.80 L 162.60 135.30 L 162.60 136.30 L 163.40 136.80 Z" fill="#ffffff" fill-rule="nonzero" group-id="1" id="路径" node-id="32" stroke="none" target-height="2" target-width="1.699997" target-x="162.6" target-y="134.8"></path><path d="M 308.10 155.60 L 309.20 155.30 L 309.80 154.60 L 310.10 153.60 L 309.80 152.60 L 309.20 151.90 L 308.10 151.60 L 307.00 151.90 L 306.40 152.60 L 306.20 153.60 L 306.40 154.60 L 307.00 155.30 L 308.10 155.60 Z" fill="#ffffff" fill-rule="nonzero" group-id="1" id="路径" node-id="33" stroke="none" target-height="4" target-width="3.899994" target-x="306.2" target-y="151.6"></path><path d="M 303.30 92.30 L 303.60 92.10 L 303.60 91.50 L 303.00 91.50 L 303.00 92.10 L 303.30 92.30 Z" fill="#ffffff" fill-rule="nonzero" group-id="1" id="路径" node-id="34" stroke="none" target-height="0.80000305" target-width="0.6000061" target-x="303" target-y="91.5"></path><path d="M 196.00 131.30 L 196.50 130.80 L 196.00 130.30 L 195.50 130.80 L 196.00 131.30 Z" fill="#ffffff" fill-rule="nonzero" group-id="1" id="路径" node-id="35" stroke="none" target-height="1" target-width="1" target-x="195.5" target-y="130.3"></path><path d="M 185.50 199.80 L 185.80 199.60 L 185.80 199.00 L 185.20 199.00 L 185.20 199.60 L 185.50 199.80 Z" fill="#ffffff" fill-rule="nonzero" group-id="1" id="路径" node-id="36" stroke="none" target-height="0.80000305" target-width="0.6000061" target-x="185.2" target-y="199"></path><path d="M 167.50 201.70 L 168.30 201.50 L 168.70 201.00 L 168.70 199.60 L 168.30 199.10 L 167.50 198.90 L 166.70 199.10 L 166.30 199.60 L 166.30 201.00 L 166.70 201.50 L 167.50 201.70 Z" fill="#ffffff" fill-rule="nonzero" group-id="1" id="路径" node-id="37" stroke="none" target-height="2.800003" target-width="2.399994" target-x="166.3" target-y="198.9"></path><path d="M 298.60 194.70 L 299.40 194.50 L 300.00 193.30 L 299.40 192.10 L 298.60 191.90 L 297.80 192.20 L 297.30 193.30 L 297.80 194.50 L 298.60 194.70 Z" fill="#ffffff" fill-rule="nonzero" group-id="1" id="路径" node-id="38" stroke="none" target-height="2.800003" target-width="2.7000122" target-x="297.3" target-y="191.9"></path><path d="M 229.90 17.10 L 230.70 16.90 L 231.10 16.40 L 231.10 15.00 L 230.70 14.50 L 229.90 14.30 L 229.10 14.50 L 228.70 15.00 L 228.70 16.40 L 229.10 16.90 L 229.90 17.10 Z" fill="#ffffff" fill-rule="nonzero" group-id="1" id="路径" node-id="39" stroke="none" target-height="2.8000002" target-width="2.4000092" target-x="228.7" target-y="14.3"></path><path d="M 325.20 117.40 L 326.00 117.20 L 326.50 116.00 L 326.00 114.80 L 325.20 114.60 L 324.40 114.90 L 323.80 116.00 L 324.40 117.20 L 325.20 117.40 Z" fill="#ffffff" fill-rule="nonzero" group-id="1" id="路径" node-id="40" stroke="none" target-height="2.800003" target-width="2.7000122" target-x="323.8" target-y="114.6"></path><path d="M 430.40 244.10 L 429.90 248.00 L 428.80 251.80 L 427.30 255.30 L 425.10 258.70 L 422.40 261.90 L 419.30 264.70 L 415.80 267.40 L 411.60 269.90 L 406.90 272.20 L 401.40 274.40 L 394.70 276.50 L 387.10 278.30 L 378.50 279.70 L 368.90 280.80 L 359.50 281.30 L 349.30 281.40 L 338.30 281.00 L 326.20 280.00 L 314.60 278.70 L 302.20 276.90 L 289.00 274.40 L 274.90 271.40 L 261.30 268.00 L 247.10 264.00 L 232.10 259.30 L 216.40 253.90 L 200.90 248.10 L 186.10 242.00 L 171.90 235.80 L 158.20 229.40 L 144.60 222.50 L 119.50 208.50 L 96.50 193.90 L 76.00 179.20 L 66.90 172.00 L 57.90 164.30 L 49.80 156.90 L 42.70 149.80 L 36.30 143.00 L 30.10 135.50 L 25.00 128.60 L 20.80 122.20 L 17.50 116.10 L 15.10 110.80 L 13.30 105.90 L 12.20 101.40 L 11.70 97.20 L 11.60 93.30 L 12.10 89.30 L 13.20 85.50 L 14.90 81.90 L 17.10 78.50 L 20.00 75.20 L 23.10 72.30 L 26.80 69.60 L 31.10 67.10 L 36.10 64.80 L 41.90 62.60 L 48.90 60.50 L 56.80 58.80 L 65.70 57.40 L 75.80 56.50 L 77.10 46.40 L 78.90 36.30 L 62.40 37.70 L 47.90 40.40 L 40.90 42.30 L 34.50 44.70 L 28.70 47.30 L 23.40 50.20 L 19.30 53.00 L 15.70 56.00 L 12.40 59.20 L 9.50 62.60 L 7.00 66.30 L 4.80 70.20 L 3.10 74.50 L 1.70 79.00 L 0.70 83.90 L 0.20 89.20 L 0.20 95.00 L 0.70 100.80 L 1.70 106.70 L 3.20 112.70 L 5.30 118.80 L 8.50 126.10 L 12.40 133.50 L 17.00 141.10 L 22.50 148.80 L 28.30 156.00 L 34.70 163.40 L 41.80 170.80 L 49.60 178.20 L 66.00 192.30 L 84.60 206.30 L 97.50 215.10 L 111.00 223.70 L 125.30 232.10 L 139.70 240.00 L 154.50 247.60 L 169.60 254.80 L 184.90 261.60 L 200.10 267.80 L 215.40 273.60 L 230.80 278.90 L 246.20 283.70 L 261.50 287.90 L 276.90 291.70 L 291.90 294.80 L 306.50 297.30 L 317.60 298.90 L 338.50 300.80 L 358.40 301.30 L 367.80 300.90 L 376.70 300.10 L 385.00 299.00 L 393.40 297.30 L 401.00 295.20 L 407.90 292.70 L 414.20 289.80 L 419.10 287.00 L 423.40 284.00 L 427.30 280.60 L 430.80 277.00 L 433.80 273.10 L 436.40 268.90 L 438.50 264.40 L 440.10 259.40 L 441.30 254.10 L 441.90 248.20 L 441.90 243.00 L 441.60 237.70 L 440.80 232.30 L 439.50 226.90 L 437.80 221.40 L 435.20 214.70 L 432.00 208.00 L 428.10 201.20 L 423.60 194.20 L 413.40 180.90 L 401.00 167.40 L 391.90 158.80 L 382.10 150.10 L 371.40 141.50 L 373.50 153.40 L 375.10 165.40 L 384.20 173.10 L 392.20 180.50 L 399.40 187.60 L 405.70 194.40 L 411.90 201.80 L 417.10 208.80 L 421.20 215.20 L 424.60 221.30 L 427.00 226.60 L 428.70 231.50 L 429.80 236.00 L 430.30 240.20 L 430.40 244.10 Z" fill="url(#linearGradient-2)" fill-rule="nonzero" group-id="1" id="路径" node-id="41" stroke="none" target-height="265" target-width="441.69998" target-x="0.2" target-y="36.3"></path><path d="M 285.90 239.10 L 286.50 238.90 L 286.90 238.10 L 286.50 237.30 L 285.90 237.10 L 285.30 237.30 L 284.90 238.10 L 285.30 238.90 L 285.90 239.10 Z" fill="#ffffff" fill-rule="nonzero" group-id="1" id="路径" node-id="42" stroke="none" target-height="2" target-width="2" target-x="284.9" target-y="237.1"></path><g node-id="69"><g node-id="71"><path d="M 352.50 65.30 L 352.20 70.60 L 351.50 72.80 L 350.80 70.60 L 350.50 65.30 L 350.80 60.00 L 351.50 57.80 L 352.20 60.00 L 352.50 65.30 Z" fill="#ffffff" fill-rule="nonzero" group-id="1,2,4" id="椭圆形" node-id="45" stroke="none" target-height="15.000004" target-width="2" target-x="350.5" target-y="57.8"></path><path d="M 351.50 73.20 L 351.00 72.90 L 350.60 71.70 L 350.30 68.40 L 350.30 62.40 L 350.60 59.10 L 351.00 57.90 L 351.50 57.60 L 352.00 57.90 L 352.40 59.10 L 352.70 62.40 L 352.70 68.40 L 352.30 71.70 L 351.90 72.90 L 351.50 73.20 Z M 351.50 58.40 L 351.10 60.80 L 350.90 65.30 L 351.10 69.80 L 351.50 72.20 L 351.90 69.80 L 352.10 65.30 L 351.50 58.40 Z" fill="#ffffff" fill-rule="nonzero" group-id="1,2,4" id="形状" node-id="46" stroke="none" target-height="15.599998" target-width="2.4000244" target-x="350.3" target-y="57.6"></path></g><g node-id="72"><path d="M 357.90 65.80 L 356.00 66.50 L 351.50 66.80 L 347.00 66.50 L 345.10 65.80 L 347.00 65.10 L 351.50 64.80 L 356.00 65.10 L 357.90 65.80 Z" fill="#ffffff" fill-rule="nonzero" group-id="1,2,5" id="椭圆形" node-id="48" stroke="none" target-height="2" target-width="12.799988" target-x="345.1" target-y="64.8"></path><path d="M 351.50 67.00 L 348.60 66.90 L 345.00 66.20 L 344.70 65.80 L 345.00 65.40 L 348.60 64.70 L 354.40 64.70 L 358.00 65.40 L 358.30 65.80 L 358.00 66.20 L 357.00 66.60 L 351.50 67.00 Z M 345.80 65.80 L 351.50 66.20 L 357.20 65.80 L 351.50 65.30 L 345.80 65.80 Z" fill="#ffffff" fill-rule="nonzero" group-id="1,2,5" id="形状" node-id="49" stroke="none" target-height="2.300003" target-width="13.599976" target-x="344.7" target-y="64.7"></path></g></g><g node-id="70"><path d="M 80.60 128.90 L 80.30 134.20 L 79.90 136.00 L 79.60 136.40 L 79.30 136.00 L 78.70 132.00 L 78.70 125.80 L 79.30 121.80 L 79.60 121.40 L 79.90 121.80 L 80.30 123.60 L 80.60 128.90 Z" fill="#ffffff" fill-rule="nonzero" group-id="1,3" id="椭圆形" node-id="51" stroke="none" target-height="14.999992" target-width="1.9000015" target-x="78.7" target-y="121.4"></path><path d="M 86.00 129.40 L 84.10 130.10 L 79.60 130.40 L 75.10 130.10 L 73.50 129.70 L 73.20 129.40 L 73.50 129.10 L 75.10 128.70 L 79.60 128.40 L 84.10 128.70 L 86.00 129.40 Z" fill="#ffffff" fill-rule="nonzero" group-id="1,3" id="椭圆形" node-id="52" stroke="none" target-height="2" target-width="12.800003" target-x="73.2" target-y="128.4"></path></g><path d="M 274.80 94.80 L 275.90 94.50 L 276.50 93.80 L 276.70 92.80 L 276.50 91.80 L 275.90 91.10 L 274.80 90.80 L 273.70 91.10 L 273.10 91.80 L 272.90 92.80 L 273.10 93.80 L 273.70 94.50 L 274.80 94.80 Z" fill="#ffffff" fill-rule="nonzero" group-id="1" id="路径" node-id="53" stroke="none" target-height="4" target-width="3.8000183" target-x="272.9" target-y="90.8"></path></g></svg>